<svg xmlns="http://www.w3.org/2000/svg" xmlns:xlink="http://www.w3.org/1999/xlink" width="940" height="291" viewBox="0 0 940 291">
  <defs>
    <clipPath id="clip-EasyPast">
      <rect width="940" height="291"/>
    </clipPath>
  </defs>
  <g id="EasyPast" clip-path="url(#clip-EasyPast)">
    <g id="ts-logo-256" transform="translate(73 42)">
      <rect id="Rectangle_1" data-name="Rectangle 1" width="182" height="182" rx="20" fill="#3178c6"/>
      <path id="Tracé_1" data-name="Tracé 1" d="M119.036,173.6v19.68a41.737,41.737,0,0,0,11.356,3.69,74.828,74.828,0,0,0,13.818,1.23,64.606,64.606,0,0,0,13.448-1.353,32.986,32.986,0,0,0,11.171-4.458,22.731,22.731,0,0,0,7.6-8.119,28.588,28.588,0,0,0,1.2-21.771,21.909,21.909,0,0,0-4.617-7.165,33.8,33.8,0,0,0-7.232-5.628,77.519,77.519,0,0,0-9.51-4.7q-3.878-1.6-6.955-3.106a35.24,35.24,0,0,1-5.231-3.075,13.4,13.4,0,0,1-3.324-3.321,6.985,6.985,0,0,1-1.169-3.967,6.627,6.627,0,0,1,1.046-3.659,9.03,9.03,0,0,1,2.955-2.8,15.792,15.792,0,0,1,4.678-1.815,27.15,27.15,0,0,1,6.155-.646,39.036,39.036,0,0,1,5.2.369,41.011,41.011,0,0,1,5.509,1.138,38.242,38.242,0,0,1,5.385,1.937,29.713,29.713,0,0,1,4.832,2.706V110.382a48.1,48.1,0,0,0-9.817-2.552,80.01,80.01,0,0,0-12.218-.83,56.8,56.8,0,0,0-13.295,1.507,33.813,33.813,0,0,0-11.049,4.7,23.523,23.523,0,0,0-7.54,8.149,23.887,23.887,0,0,0-2.77,11.839,22.945,22.945,0,0,0,5.078,15.006q5.078,6.211,15.418,10.516,4.063,1.661,7.571,3.26a42.13,42.13,0,0,1,6.063,3.32,15.884,15.884,0,0,1,4.032,3.752,7.642,7.642,0,0,1,1.477,4.613,7.055,7.055,0,0,1-.923,3.536,8.184,8.184,0,0,1-2.8,2.829,15.362,15.362,0,0,1-4.678,1.875,28.136,28.136,0,0,1-6.555.677,37.406,37.406,0,0,1-12.679-2.245,37.836,37.836,0,0,1-11.634-6.734Zm-32.8-48.975h25.308v-16.2H41v16.2H66.184v72.15H86.233Z" transform="translate(-11.786 -30.759)" fill="#fff" fill-rule="evenodd"/>
    </g>
    <g id="angular" transform="translate(325.1 12)">
      <path id="Tracé_2" data-name="Tracé 2" d="M125,30h0L31.9,63.2,46.1,186.3,125,230h0l78.9-43.7L218.1,63.2Z" fill="#dd0031"/>
      <path id="Tracé_3" data-name="Tracé 3" d="M125,30V153.4h0V230h0l78.9-43.7L218.1,63.2Z" fill="#c3002f"/>
      <path id="Tracé_4" data-name="Tracé 4" d="M125,52.1,66.8,182.6H88.5l11.7-29.2h49.4l11.7,29.2H183L125,52.1Zm17,83.3H108l17-40.9Z" fill="#fff"/>
    </g>
    <path id="git-icon" d="M217.029,100.745,120.451,4.172a14.246,14.246,0,0,0-20.145,0L80.251,24.227l25.441,25.441a16.917,16.917,0,0,1,21.424,21.566l24.518,24.519a16.93,16.93,0,1,1-10.153,9.557L118.615,82.445l0,60.171a17.126,17.126,0,0,1,4.483,3.206,16.936,16.936,0,1,1-18.421-3.7V81.391a16.744,16.744,0,0,1-5.548-3.7,16.945,16.945,0,0,1-3.652-18.531L70.4,34.08,4.173,100.3a14.25,14.25,0,0,0,0,20.152l96.58,96.575a14.247,14.247,0,0,0,20.147,0L217.028,120.9a14.255,14.255,0,0,0,0-20.153" transform="translate(645 35)" fill="#de4c36"/>
  </g>
</svg>
